<?xml version="1.0" standalone="no"?>
<!DOCTYPE svg PUBLIC "-//W3C//DTD SVG 20010904//EN"
 "http://www.w3.org/TR/2001/REC-SVG-20010904/DTD/svg10.dtd">
<svg version="1.0" xmlns="http://www.w3.org/2000/svg"
 width="351.000000pt" height="351.000000pt" viewBox="0 0 351.000000 351.000000"
 preserveAspectRatio="xMidYMid meet">
<metadata>
Created by potrace 1.14, written by Peter Selinger 2001-2017
</metadata>
<g transform="translate(0.000000,351.000000) scale(0.100000,-0.100000)"
fill="#000000" stroke="none">
<path d="M2446 2522 c-121 -389 -224 -720 -230 -736 -11 -27 -27 14 -220 555
-115 321 -217 600 -227 619 -37 74 -96 110 -178 110 -68 0 -129 -35 -166 -94
-53 -87 -59 -64 250 -926 153 -426 280 -782 283 -790 2 -8 -281 269 -629 617
-564 561 -639 633 -676 643 -76 20 -148 -12 -183 -80 -22 -44 -25 -85 -10
-127 6 -16 330 -348 735 -753 623 -623 724 -728 719 -747 -4 -13 -10 -23 -15
-23 -5 0 -406 133 -891 296 -876 293 -883 296 -923 282 -97 -32 -114 -167 -26
-213 52 -26 2475 -836 2496 -833 11 1 42 -4 68 -11 26 -8 49 -12 51 -10 2 2
189 600 416 1329 227 729 414 1328 416 1331 2 3 -182 64 -409 134 -227 71
-416 130 -422 132 -5 1 -109 -315 -229 -705z"/>
</g>
</svg>
